<?xml version="1.0" encoding="UTF-8" standalone="no"?>
<!-- Created with Inkscape (http://www.inkscape.org/) -->

<svg
        viewBox="0 0 191.95987 198.02253"
        version="1.1"
        id="svg5"
        xmlns="http://www.w3.org/2000/svg"
>
  <defs
     id="defs2">
    <symbol
       id="o"
       overflow="visible">
      <path
         d="m 29.312,-1.75 c -1.5117,0.78125 -3.0898,1.3711 -4.7344,1.7656 -1.6367,0.40625 -3.3398,0.60938 -5.1094,0.60938 -5.3125,0 -9.5273,-1.4844 -12.641,-4.4531 -3.1055,-2.9688 -4.6562,-7 -4.6562,-12.094 0,-5.094 1.5508,-9.125 4.6562,-12.094 3.1133,-2.9688 7.3281,-4.4531 12.641,-4.4531 1.7695,0 3.4727,0.19922 5.1094,0.59375 1.6445,0.39844 3.2227,0.99219 4.7344,1.7812 v 6.5938 c -1.5312,-1.0391 -3.0391,-1.8008 -4.5156,-2.2812 -1.4805,-0.48828 -3.0391,-0.73438 -4.6719,-0.73438 -2.9375,0 -5.2461,0.94531 -6.9219,2.8281 -1.6797,1.875 -2.5156,4.4648 -2.5156,7.7656 0,3.293 0.83594,5.8828 2.5156,7.7656 1.6758,1.875 3.9844,2.8125 6.9219,2.8125 1.6328,0 3.1914,-0.23828 4.6719,-0.71875 1.4766,-0.48828 2.9844,-1.2539 4.5156,-2.2969 z"
         id="path9" />
    </symbol>
    <symbol
       id="i"
       overflow="visible">
      <path
         d="m 21.453,-17.406 c -0.67969,-0.3125 -1.3516,-0.53906 -2.0156,-0.6875 -0.65625,-0.15625 -1.3203,-0.23438 -1.9844,-0.23438 -1.9688,0 -3.4844,0.63281 -4.5469,1.8906 -1.0547,1.2617 -1.5781,3.0703 -1.5781,5.4219 V 6.2e-4 H 3.6718 v -23.922 h 7.6562 v 3.9219 c 0.97656,-1.5625 2.1016,-2.7031 3.375,-3.4219 1.2812,-0.71875 2.8125,-1.0781 4.5938,-1.0781 0.25,0 0.52344,0.01172 0.82812,0.03125 0.30078,0.02344 0.73438,0.07031 1.2969,0.14062 z"
         id="path12" />
    </symbol>
    <symbol
       id="a"
       overflow="visible">
      <path
         d="m 27.562,-12.031 v 2.1875 H 9.671 c 0.1875,1.793 0.83203,3.1367 1.9375,4.0312 1.1133,0.89844 2.6719,1.3438 4.6719,1.3438 1.6016,0 3.25,-0.23438 4.9375,-0.70312 1.6875,-0.47656 3.4219,-1.2031 5.2031,-2.1719 v 5.8906 c -1.8047,0.6875 -3.6094,1.2031 -5.4219,1.5469 -1.8125,0.35156 -3.6211,0.53125 -5.4219,0.53125 -4.3359,0 -7.7031,-1.0977 -10.109,-3.2969 -2.3984,-2.207 -3.5938,-5.2969 -3.5938,-9.2656 0,-3.9062 1.1758,-6.9727 3.5312,-9.2031 2.3633,-2.2383 5.6094,-3.3594 9.7344,-3.3594 3.7578,0 6.7695,1.1367 9.0312,3.4062 2.2578,2.2617 3.3906,5.2812 3.3906,9.0625 z m -7.8594,-2.5312 c 0,-1.457 -0.42969,-2.6289 -1.2812,-3.5156 -0.84375,-0.89453 -1.9492,-1.3438 -3.3125,-1.3438 -1.4922,0 -2.6992,0.41797 -3.625,1.25 -0.91797,0.83594 -1.4922,2.0391 -1.7188,3.6094 z"
         id="path15" />
    </symbol>
    <symbol
       id="h"
       overflow="visible">
      <path
         d="m 14.391,-10.766 c -1.5938,0 -2.793,0.27344 -3.5938,0.8125 -0.80469,0.54297 -1.2031,1.3398 -1.2031,2.3906 0,0.96875 0.32031,1.7305 0.96875,2.2812 0.64453,0.54297 1.5469,0.8125 2.7031,0.8125 1.4375,0 2.6445,-0.51562 3.625,-1.5469 0.98828,-1.0312 1.4844,-2.3203 1.4844,-3.875 v -0.875 z m 11.688,-2.8906 V -6e-4 h -7.7031 v -3.5469 c -1.0312,1.4492 -2.1875,2.5078 -3.4688,3.1719 -1.2813,0.6641 -2.8398,1 -4.6719,1 -2.4805,0 -4.4961,-0.72266 -6.0469,-2.1719 -1.543,-1.4453 -2.3125,-3.3203 -2.3125,-5.625 0,-2.8125 0.96094,-4.8672 2.8906,-6.1719 1.9375,-1.3125 4.9688,-1.9688 9.0938,-1.9688 h 4.5156 v -0.60938 c 0,-1.207 -0.48047,-2.0938 -1.4375,-2.6562 -0.94922,-0.5625 -2.4375,-0.84375 -4.4688,-0.84375 -1.6367,0 -3.1562,0.16797 -4.5625,0.5 -1.4062,0.32422 -2.7188,0.8125 -3.9375,1.4688 v -5.8281 c 1.6445,-0.40625 3.2891,-0.70703 4.9375,-0.90625 1.6562,-0.20703 3.3047,-0.3125 4.9531,-0.3125 4.3203,0 7.4375,0.85547 9.3438,2.5625 1.9141,1.6992 2.875,4.4609 2.875,8.2812 z"
         id="path18" />
    </symbol>
    <symbol
       id="g"
       overflow="visible">
      <path
         d="m 12.031,-30.719 v 6.7969 h 7.875 v 5.4688 h -7.875 v 10.141 c 0,1.1172 0.21875,1.8711 0.65625,2.2656 0.4375,0.38672 1.3125,0.57812 2.625,0.57812 h 3.9375 v 5.4688 h -6.5625 c -3.0234,0 -5.1641,-0.62891 -6.4219,-1.8906 -1.2617,-1.2578 -1.8906,-3.3984 -1.8906,-6.4219 v -10.141 h -3.7969 v -5.4688 h 3.7969 v -6.7969 z"
         id="path21" />
    </symbol>
    <symbol
       id="f"
       overflow="visible">
      <path
         d="m 19.953,-20.422 v -12.812 h 7.6875 V 0 H 19.953 v -3.4531 c -1.0547,1.4062 -2.2148,2.4375 -3.4844,3.0938 -1.2734,0.65625 -2.7422,0.98438 -4.4062,0.98438 -2.9492,0 -5.3711,-1.1719 -7.2656,-3.5156 -1.8867,-2.3438 -2.8281,-5.3594 -2.8281,-9.0469 0,-3.6875 0.94141,-6.7031 2.8281,-9.0469 1.8945,-2.3438 4.3164,-3.5156 7.2656,-3.5156 1.6562,0 3.1172,0.33594 4.3906,1 1.2812,0.65625 2.4453,1.6836 3.5,3.0781 z m -5.0469,15.484 c 1.6445,0 2.8945,-0.59766 3.75,-1.7969 0.86328,-1.1953 1.2969,-2.9297 1.2969,-5.2031 0,-2.2812 -0.43359,-4.0195 -1.2969,-5.2188 -0.85547,-1.1953 -2.1055,-1.7969 -3.75,-1.7969 -1.625,0 -2.8711,0.60156 -3.7344,1.7969 -0.85547,1.1992 -1.2812,2.9375 -1.2812,5.2188 0,2.2734 0.42578,4.0078 1.2812,5.2031 0.86328,1.1992 2.1094,1.7969 3.7344,1.7969 z"
         id="path24" />
    </symbol>
    <symbol
       id="e"
       overflow="visible">
      <path
         d="m 16.406,-4.9375 c 1.6328,0 2.8828,-0.59766 3.75,-1.7969 0.86328,-1.1953 1.2969,-2.9297 1.2969,-5.2031 0,-2.2812 -0.43359,-4.0195 -1.2969,-5.2188 -0.86719,-1.1953 -2.1172,-1.7969 -3.75,-1.7969 -1.6367,0 -2.8906,0.60547 -3.7656,1.8125 -0.875,1.1992 -1.3125,2.9336 -1.3125,5.2031 0,2.2617 0.4375,3.9961 1.3125,5.2031 0.875,1.1992 2.1289,1.7969 3.7656,1.7969 z m -5.0781,-15.484 c 1.0508,-1.3945 2.2188,-2.4219 3.5,-3.0781 1.2812,-0.66406 2.7539,-1 4.4219,-1 2.9453,0 5.3672,1.1719 7.2656,3.5156 1.8945,2.3438 2.8438,5.3594 2.8438,9.0469 0,3.6875 -0.94922,6.7031 -2.8438,9.0469 -1.8984,2.3438 -4.3203,3.5156 -7.2656,3.5156 -1.668,0 -3.1406,-0.33594 -4.4219,-1 -1.2813,-0.66406 -2.4492,-1.6914 -3.5,-3.0781 V 4e-4 H 3.6717 v -33.234 h 7.6562 z"
         id="path27" />
    </symbol>
    <symbol
       id="d"
       overflow="visible">
      <path
         d="m 0.53125,-23.922 h 7.6562 l 6.4219,16.234 5.4688,-16.234 h 7.6562 l -10.062,26.188 c -1.0117,2.6641 -2.1953,4.5234 -3.5469,5.5781 -1.3438,1.0625 -3.1211,1.5938 -5.3281,1.5938 H 4.37545 V 4.4223 h 2.3906 c 1.3008,0 2.2422,-0.21094 2.8281,-0.625 0.59375,-0.40625 1.0547,-1.1484 1.3906,-2.2188 l 0.20312,-0.65625 z"
         id="path30" />
    </symbol>
    <symbol
       id="c"
       overflow="visible">
      <path
         d="m 4.0156,-31.891 h 8.2188 v 11.641 l 11.859,-11.641 h 9.5469 L 18.2813,-16.797 35.2193,0 H 24.9383 L 12.2353,-12.562 V 0 H 4.0165 Z"
         id="path33" />
    </symbol>
    <symbol
       id="n"
       overflow="visible">
      <path
         d="m 25.844,-19.953 c 0.96875,-1.4766 2.1172,-2.6016 3.4531,-3.375 1.332,-0.78125 2.7969,-1.1719 4.3906,-1.1719 2.75,0 4.8438,0.85156 6.2812,2.5469 1.4375,1.6875 2.1562,4.1523 2.1562,7.3906 V -4e-4 h -7.6875 v -12.469 c 0.0078,-0.1875 0.01953,-0.37891 0.03125,-0.57812 0.0078,-0.19531 0.01563,-0.48438 0.01563,-0.85938 0,-1.6953 -0.25,-2.9258 -0.75,-3.6875 -0.5,-0.75781 -1.3086,-1.1406 -2.4219,-1.1406 -1.4492,0 -2.5703,0.60156 -3.3594,1.7969 -0.79297,1.1992 -1.2031,2.9297 -1.2344,5.1875 v 11.75 h -7.6875 v -12.469 c 0,-2.6562 -0.23047,-4.3633 -0.6875,-5.125 -0.44922,-0.75781 -1.2578,-1.1406 -2.4219,-1.1406 -1.4688,0 -2.6055,0.60547 -3.4062,1.8125 -0.79297,1.1992 -1.1875,2.918 -1.1875,5.1562 V -5e-4 h -7.7031 v -23.922 h 7.7031 v 3.5 c 0.9375,-1.3516 2.0156,-2.3672 3.2344,-3.0469 1.2188,-0.6875 2.5547,-1.0312 4.0156,-1.0312 1.6562,0 3.1133,0.40234 4.375,1.2031 1.2695,0.79297 2.2344,1.9062 2.8906,3.3438 z"
         id="path36" />
    </symbol>
    <symbol
       id="b"
       overflow="visible">
      <path
         d="m 19.953,-4.0625 c -1.0547,1.3984 -2.2148,2.4219 -3.4844,3.0781 -1.2734,0.65625 -2.7422,0.98438 -4.4062,0.98438 -2.918,0 -5.3281,-1.1484 -7.2344,-3.4531 -1.9062,-2.3008 -2.8594,-5.2266 -2.8594,-8.7812 0,-3.582 0.95312,-6.5156 2.8594,-8.7969 1.90628,-2.2813 4.3164,-3.4219 7.2344,-3.4219 1.6641,0 3.1328,0.32812 4.4062,0.98438 1.2695,0.64844 2.4297,1.6797 3.4844,3.0938 v -3.5469 h 7.6875 v 21.516 c 0,3.8438 -1.2148,6.7734 -3.6406,8.7969 -2.4297,2.0312 -5.9492,3.0469 -10.562,3.0469 -1.5,0 -2.9492,-0.11719 -4.3438,-0.34375 C 7.6957,8.87546 6.2972,8.5239 4.891,8.04731 v -5.9531 c 1.3438,0.76953 2.6562,1.3438 3.9375,1.7188 1.2813,0.375 2.5664,0.5625 3.8594,0.5625 2.5078,0 4.3477,-0.54688 5.5156,-1.6406 1.1641,-1.0938 1.75,-2.8047 1.75,-5.1406 z m -5.0469,-14.891 c -1.5742,0 -2.8047,0.58984 -3.6875,1.7656 -0.88672,1.168 -1.3281,2.8203 -1.3281,4.9531 0,2.1875 0.42578,3.8516 1.2812,4.9844 0.85156,1.1367 2.0977,1.7031 3.7344,1.7031 1.5938,0 2.832,-0.58203 3.7188,-1.75 0.88281,-1.1758 1.3281,-2.8203 1.3281,-4.9375 0,-2.1328 -0.44531,-3.7852 -1.3281,-4.9531 -0.88672,-1.1758 -2.125,-1.7656 -3.7188,-1.7656 z"
         id="path39" />
    </symbol>
    <symbol
       id="m"
       overflow="visible">
      <path
         d="m 12.234,-25.672 v 19.453 h 2.9531 c 3.3633,0 5.9297,-0.83203 7.7031,-2.5 1.7695,-1.6641 2.6562,-4.0859 2.6562,-7.2656 0,-3.1562 -0.88672,-5.5547 -2.6562,-7.2031 -1.7617,-1.6562 -4.3281,-2.4844 -7.7031,-2.4844 z m -8.2188,-6.2188 h 8.6719 c 4.8438,0 8.4453,0.34375 10.812,1.0312 2.375,0.6875 4.4102,1.8594 6.1094,3.5156 1.4883,1.4375 2.5977,3.1016 3.3281,4.9844 0.72656,1.875 1.0938,4 1.0938,6.375 0,2.4062 -0.36719,4.5586 -1.0938,6.4531 -0.73047,1.8867 -1.8398,3.5469 -3.3281,4.9844 -1.7109,1.6484 -3.7617,2.8203 -6.1562,3.5156 C 21.0539,-0.344 17.4679,-3e-4 12.6863,-3e-4 H 4.0144 Z"
         id="path42" />
    </symbol>
    <symbol
       id="l"
       overflow="visible">
      <path
         d="m 22.359,-23.172 v 5.7969 c -1.6367,-0.67578 -3.2148,-1.1875 -4.7344,-1.5312 -1.5234,-0.34375 -2.9609,-0.51562 -4.3125,-0.51562 -1.4609,0 -2.543,0.18359 -3.25,0.54688 -0.69922,0.36719 -1.0469,0.92188 -1.0469,1.6719 0,0.61719 0.26562,1.0898 0.79688,1.4219 0.53125,0.32422 1.4883,0.5625 2.875,0.71875 l 1.3438,0.1875 c 3.9141,0.5 6.5508,1.3242 7.9062,2.4688 1.3516,1.1367 2.0312,2.9219 2.0312,5.3594 0,2.5547 -0.94531,4.4688 -2.8281,5.75 -1.875,1.2812 -4.6797,1.9219 -8.4062,1.9219 -1.5859,0 -3.2188,-0.125 -4.9062,-0.375 -1.6874,-0.25 -3.4219,-0.625 -5.2031,-1.125 v -5.8125 c 1.5195,0.74219 3.082,1.2969 4.6875,1.6719 1.6016,0.36719 3.2344,0.54688 4.8906,0.54688 1.4883,0 2.6094,-0.20312 3.3594,-0.60938 0.75781,-0.41406 1.1406,-1.0312 1.1406,-1.8438 0,-0.6875 -0.26172,-1.1953 -0.78125,-1.5312 -0.52344,-0.33203 -1.5586,-0.59375 -3.1094,-0.78125 l -1.3438,-0.17188 c -3.4062,-0.42578 -5.793,-1.2109 -7.1562,-2.3594 -1.3672,-1.1562 -2.0469,-2.9102 -2.0469,-5.2656 0,-2.5312 0.86719,-4.4062 2.6094,-5.625 1.7383,-1.2266 4.3984,-1.8438 7.9844,-1.8438 1.4062,0 2.8828,0.10938 4.4375,0.32812 1.5508,0.21094 3.2383,0.54297 5.0625,1 z"
         id="path45" />
    </symbol>
    <symbol
       id="k"
       overflow="visible">
      <path
         d="m 3.6719,-23.922 h 7.6562 V 0 H 3.6719 Z m 0,-9.3125 h 7.6562 v 6.2344 H 3.6719 Z"
         id="path48" />
    </symbol>
    <symbol
       id="j"
       overflow="visible">
      <path
         d="M 27.734,-14.562 V 0 h -7.7031 v -11.156 c 0,-2.0625 -0.04687,-3.4844 -0.14062,-4.2656 -0.08594,-0.78125 -0.24219,-1.3594 -0.46875,-1.7344 -0.30469,-0.5 -0.71094,-0.88281 -1.2188,-1.1562 -0.51172,-0.28125 -1.0938,-0.42188 -1.75,-0.42188 -1.5938,0 -2.8516,0.61719 -3.7656,1.8438 -0.90625,1.2305 -1.3594,2.9375 -1.3594,5.125 v 11.766 h -7.6562 v -23.922 h 7.6562 v 3.5 c 1.1445,-1.3945 2.3633,-2.4219 3.6562,-3.0781 1.3008,-0.66406 2.7383,-1 4.3125,-1 2.7578,0 4.8516,0.85156 6.2812,2.5469 1.4375,1.6875 2.1562,4.1523 2.1562,7.3906 z"
         id="path51" />
    </symbol>
  </defs>
  <g
     id="layer1"
     transform="translate(-0.29344665,-0.17232137)">
    <path
       d="m 188.88238,120.94785 c -8.23148,0 -16.46297,0 -24.69445,0 0.80123,-14.19022 -19.70067,-21.145793 -27.69107,-9.37931 -2.51693,6.37293 -3.04383,11.2895 -10.89249,9.37931 -9.34892,-0.11121 -18.72007,0.22794 -28.054369,-0.17958 -5.606418,0.64557 -11.809238,-13.44306 -4.138579,-12.16747 10.602358,-0.15439 21.265678,0.3103 31.829538,-0.23496 3.44664,-2.68208 1.31,-7.81887 1.90548,-11.669563 0,-20.726272 0,-41.452543 0,-62.178814 -1.19223,-5.055922 -7.55976,-2.436355 -11.35342,-3.0868 -8.27861,1.018967 -1.37501,8.49423 3.96617,6.17361 2.76091,0.582882 0.45991,6.227669 1.21364,8.817723 0,12.494787 0,24.989574 0,37.484361 -11.31829,0 -22.636576,0 -33.954864,0 0.659767,-2.794445 -1.368401,-8.276824 1.102215,-9.26042 7.912277,0.931817 4.458835,-8.659633 -1.873159,-6.17361 C 82.298211,65.158335 97.699755,58.384237 91.616326,52.644849 85.820772,42.98559 80.025219,33.326332 74.229665,23.667073 c -4.940549,-4.426882 -7.124814,3.946381 -9.544803,7.088565 -4.829693,8.27221 -10.071847,16.34153 -14.644584,24.740138 -0.212686,4.489199 14.072413,14.144952 3.926235,12.976551 -7.801446,0.766521 -1.630669,7.486432 2.183187,6.724718 -0.815341,2.638871 1.804924,8.713348 -1.653323,8.709312 -10.767179,0 -21.534357,0 -32.301536,0 0,-15.434028 0,-30.868056 0,-46.302084 4.008512,0.969558 13.006112,-0.827518 7.375059,-5.93101 -4.133736,-0.129419 -8.830398,-1.021722 -12.644501,0.661568 -1.877696,4.734831 -0.465765,10.311951 -0.904168,15.409217 0,19.256651 0,38.513301 0,57.769952 1.19223,5.05592 7.559759,2.43636 11.353416,3.0868 8.562749,0 17.125498,0 25.688247,0 1.364176,7.13608 -4.699916,13.76571 -12.015779,12.34705 -12.850312,0.15906 -25.764394,-0.31988 -38.5743831,0.2426 -3.41468681,2.69822 -1.2932695,7.81459 -1.88535092,11.66192 0.24031998,3.55672 -1.49905742,10.18378 4.18901542,9.70312 3.7483349,0 7.4966696,0 11.2450046,0 0,17.4919 0,34.98379 0,52.47569 3.377335,7.68427 7.871419,-1.42894 6.17361,-6.06218 0,-15.47117 0,-30.94234 0,-46.41351 2.794445,0.65977 8.276824,-1.3684 9.26042,1.10222 0,17.12449 0,34.24898 0,51.37347 3.377327,7.68427 7.871424,-1.42894 6.173612,-6.06218 0,-7.23969 0,-14.47938 0,-21.71907 39.099539,0 78.199077,0 117.298617,0 0.16016,9.65297 -0.32145,19.3701 0.2426,28.9827 5.36674,5.71157 6.77169,-3.74994 5.93101,-7.81474 0,-15.28747 0,-30.57493 0,-45.8624 2.79444,0.65977 8.27682,-1.3684 9.26042,1.10222 0,17.12449 0,34.24898 0,51.37347 3.37732,7.68427 7.87142,-1.42894 6.17361,-6.06218 0,-15.47117 0,-30.94234 0,-46.41351 4.80057,-0.45223 10.09344,0.99553 14.53003,-0.904 1.87847,-4.73537 0.46492,-10.31214 0.904,-15.40939 0.18337,-2.24566 -0.057,-5.27806 -3.08695,-5.29425 z m -40.12847,-9.26042 c 7.5087,-1.00155 13.43885,12.25558 3.19806,9.26024 -4.15289,0 -8.30577,0 -12.45866,0 -0.11423,-4.96666 4.29426,-9.37412 9.2606,-9.26024 z M 68.496957,36.404653 c 0,3.773073 0,7.546147 0,11.31922 -10.619802,6.933402 7.990081,18.245479 9.25413,5.623594 -1.752756,-4.468745 -4.120177,-8.014958 -3.080732,-13.339102 -0.827696,-6.393758 1.749807,-0.49431 3.402664,2.067048 2.727519,4.545586 5.455038,9.091173 8.182557,13.63676 -5.807408,4.081505 -5.379797,15.270455 -14.085056,12.760684 -6.771546,1.70233 -9.301448,-2.39889 -11.648636,-8.365434 -6.122191,-3.576801 -1.368736,-7.782487 0.924828,-11.955799 2.350081,-3.915657 4.700163,-7.831314 7.050245,-11.746971 z m -6.173611,38.241114 c 6.17361,0 12.347219,0 18.520829,0 -0.659769,2.79444 1.368403,8.27682 -1.102215,9.26041 -5.806205,0 -11.612409,0 -17.418614,0 0,-3.086803 0,-6.173607 0,-9.26041 z m -40.128475,15.43402 c 32.92593,0 65.851859,0 98.777789,0 0,4.115741 0,8.231482 0,12.347223 -32.92593,0 -65.851859,0 -98.777789,0 0,-4.115741 0,-8.231482 0,-12.347223 z m 37.04167,21.607643 c -1.486448,-4.90352 4.265989,-2.56815 7.1644,-3.08681 5.843348,0 11.686697,0 17.530045,0 -2.305654,4.39333 5.75836,12.94557 0.331271,12.34723 -9.37084,0 -18.741681,0 -28.112522,0 1.998094,-2.64392 3.098374,-5.94651 3.086806,-9.26042 z m 95.690979,49.38889 c -39.09954,0 -78.199079,0 -117.298618,0 0,-6.17361 0,-12.34722 0,-18.52083 39.099539,0 78.199078,0 117.298618,0 0,6.17361 0,12.34722 0,18.52083 z m 30.86805,-24.69445 c -59.67824,0 -119.356479,0 -179.034719,0 0.6597686,-2.79444 -1.368403,-8.27682 1.1022154,-9.26041 59.3108346,0 118.6216736,0 177.9325036,0 0,3.0868 0,6.17361 0,9.26041 z M 87.017796,151.8159 c 1.187942,-5.05671 7.561945,-2.43569 11.353416,-3.0868 5.910328,-2.48038 10.516338,6.60411 2.427288,6.17361 -4.255131,-0.42402 -8.983281,0.95418 -12.876537,-0.90417 l -0.661567,-0.98119 z M 65.410152,96.253407 c 1.141559,-4.478818 9.489845,-4.049933 12.104623,-1.201455 0.96181,5.842338 -7.782108,4.79167 -11.200454,3.384087 L 65.652753,97.454856 Z M 19.108071,19.083263 c 4.800567,-0.452231 10.093442,0.995533 14.53003,-0.904 0.247469,-4.921516 1.987348,-6.124092 6.96618,-5.26961 3.508828,0 7.017657,0 10.526485,0 -13.714848,6.316705 -12.60684,23.751024 -21.401341,32.289207 -8.200666,13.577636 17.966045,20.148983 17.151161,4.305836 -1.773082,-6.674046 -9.173143,-9.489441 -3.98966,-17.086919 3.321408,-8.542719 10.670863,-15.379571 19.432491,-18.072324 -0.960342,5.9462 5.927916,4.687868 9.700097,4.7377 4.931617,1.53824 8.815535,-2.136714 9.911442,-4.373105 11.244878,3.846056 19.597024,14.725985 20.405464,26.583045 -14.963527,5.456991 1.38293,27.061618 10.70183,14.14427 6.62757,-9.560719 -7.30073,-13.394554 -6.08479,-22.588414 -0.36836,-7.98261 -12.947267,-17.466999 -13.267271,-19.939296 4.97845,0 9.956901,0 14.935351,0 -1.4151,5.331506 3.67843,7.035755 8.04678,6.17361 3.61649,-0.499668 10.2079,1.846558 10.47405,-3.637918 -0.44373,-4.618631 0.98314,-9.7234527 -0.90399,-13.9789222 -4.44578,-1.86111595 -9.72352,-0.47661441 -14.53003,-0.904 -4.69455,1.4472766 -1.29265,8.5717079 -8.04678,6.17361 -7.607095,0 -15.21419,0 -22.821285,0 1.415099,-5.3315057 -3.678429,-7.03575538 -8.046779,-6.17361 -3.614948,0.5005286 -10.211449,-1.8475527 -10.474054,3.6379177 1.134698,4.5517649 -5.049194,1.7849391 -7.715508,2.5356923 -6.688581,0 -13.377161,0 -20.065742,0 1.415097,-5.3315007 -3.678421,-7.03575794 -8.04677,-6.17361 -3.61495,0.5005303 -10.211457,-1.8475556 -10.474061,3.6379177 0.443733,4.6186318 -0.983142,9.7234535 0.90399,13.9789225 l 1.001491,0.669039 1.181319,0.234961 z m 18.520831,33.95486 c -8.837628,-2.278312 4.183148,-10.868671 2.851849,-1.905484 -0.451931,1.133854 -1.631569,1.921461 -2.851849,1.905484 z m 67.909728,0 c -8.837624,-2.278306 4.18314,-10.868673 2.85185,-1.905484 -0.45193,1.133852 -1.63157,1.921462 -2.85185,1.905484 z m 9.26042,-46.3020902 c 3.38585,-0.042063 7.77454,-1.0869604 6.17361,3.8577542 1.71456,3.581454 -6.209,3.015104 -6.17361,1.213651 0,-1.690469 0,-3.3809369 0,-5.0714052 z m -46.302093,0 c 3.38585,-0.042063 7.774534,-1.0869598 6.173608,3.8577542 1.714556,3.581454 -6.208999,3.015105 -6.173608,1.213651 0,-1.690469 0,-3.3809369 0,-5.0714052 z m -46.302086,0 c 3.385851,-0.042063 7.774536,-1.0869604 6.17361,3.8577542 1.714556,3.581454 -6.209,3.015104 -6.17361,1.213651 0,-1.690469 0,-3.3809369 0,-5.0714052 z"
       id="path56"
       style="fill:#ffffff;stroke:#ffffff;stroke-width:0.352778" />
  </g>
</svg>
