<?xml version="1.0" encoding="utf-8"?>
<!-- document open recent by throwaway icons from <a href="https://thenounproject.com/browse/icons/term/document-open-recent/" target="_blank" title="document open recent Icons">Noun Project</a> -->
<svg width="403.7px" height="313.6px" version="1.1" viewBox="0 0 403.7 313.6" xmlns="http://www.w3.org/2000/svg">
  <g transform="matrix(1, 0, 0, 1, -145.229568, -119.272438)">
    <path stroke="white" fill="white" d="M 145.23 119.272 L 145.753 125.221 L 168.155 371.621 L 168.678 376.871 L 369.748 376.871 L 369.748 365.672 L 179.528 365.672 L 202.977 186.472 L 404.577 186.472 L 405.277 181.574 L 408.249 158.472 L 492.077 158.472 L 475.624 287.272 C 435.729 287.561 403.351 320.112 403.351 360.073 C 403.351 400.214 436.011 432.874 476.152 432.874 C 516.293 432.874 548.953 400.214 548.953 360.073 C 548.953 323.581 521.902 293.362 486.828 288.147 L 504.152 153.577 L 504.852 147.276 L 455.676 147.276 L 453.75 124.35 L 453.226 119.276 L 145.23 119.272 Z M 157.48 130.471 L 443.08 130.471 L 444.478 147.272 L 398.455 147.272 L 397.752 151.999 L 394.779 175.272 L 193.349 175.272 L 192.65 179.998 L 174.451 317.018 L 157.48 130.471 Z M 476.16 298.471 C 510.246 298.471 537.758 325.987 537.758 360.073 C 537.758 394.159 510.246 421.675 476.16 421.675 C 442.074 421.675 414.558 394.159 414.558 360.073 C 414.558 325.987 442.074 298.471 476.16 298.471 Z M 476.16 320.873 L 476.16 360.072 L 448.16 360.072 L 448.16 371.271 L 487.359 371.271 L 487.359 320.873 L 476.16 320.873 Z"/>
  </g>
</svg>
