<?xml version="1.0" encoding="UTF-8" standalone="no"?>
<!-- Created with Inkscape (http://www.inkscape.org/) -->

<svg
        viewBox="0 0 197.57196 197.57242"
        version="1.1"
        id="svg863"
        xmlns="http://www.w3.org/2000/svg"
>
  <defs
     id="defs860">
    <symbol
       id="e"
       overflow="visible">
      <path
         d="m 39.078,-2.3281 c -2.0117,1.043 -4.1094,1.8281 -6.2969,2.3594 -2.1875,0.5313 -4.4648,0.79688 -6.8281,0.79688 -7.0859,0 -12.699,-1.9766 -16.844,-5.9375 -4.1367,-3.957 -6.2031,-9.3281 -6.2031,-16.109 0,-6.7891 2.0664,-12.164 6.2031,-16.125 4.1445,-3.9688 9.7578,-5.9531 16.844,-5.9531 2.3633,0 4.6406,0.26562 6.8281,0.79688 2.1875,0.53126 4.2852,1.3242 6.2969,2.375 v 8.7969 c -2.0312,-1.3828 -4.0391,-2.3984 -6.0156,-3.0469 -1.9688,-0.64453 -4.0469,-0.96875 -6.2344,-0.96875 -3.9062,0 -6.9844,1.2578 -9.2344,3.7656 -2.2422,2.5 -3.3594,5.9531 -3.3594,10.359 0,4.3867 1.1172,7.8359 3.3594,10.344 2.25,2.5 5.3281,3.75 9.2344,3.75 2.1875,0 4.2656,-0.32031 6.2344,-0.96875 1.9766,-0.64453 3.9844,-1.6602 6.0156,-3.0469 z"
         id="path924" />
    </symbol>
    <symbol
       id="a"
       overflow="visible">
      <path
         d="m 16.031,-40.953 v 9.0625 h 10.516 v 7.2812 H 16.031 v 13.531 c 0,1.4805 0.28906,2.4805 0.875,3 0.59375,0.52344 1.7656,0.78125 3.5156,0.78125 h 5.2344 v 7.2969 h -8.7344 c -4.0312,0 -6.8867,-0.83594 -8.5625,-2.5156 -1.6797,-1.6875 -2.5156,-4.5391 -2.5156,-8.5625 v -13.531 H 0.7654 v -7.2812 h 5.0781 v -9.0625 z"
         id="path927" />
    </symbol>
    <symbol
       id="d"
       overflow="visible">
      <path
         d="M 26.594,-27.234 V -44.312 H 36.86 V 0 H 26.594 v -4.6094 c -1.3984,1.875 -2.9453,3.25 -4.6406,4.125 -1.6875,0.875 -3.6406,1.3125 -5.8594,1.3125 -3.9297,0 -7.1562,-1.5625 -9.6875,-4.6875 -2.5234,-3.125 -3.7812,-7.1445 -3.7812,-12.062 0,-4.9141 1.2578,-8.9375 3.7812,-12.062 2.5312,-3.125 5.7578,-4.6875 9.6875,-4.6875 2.1953,0 4.1445,0.44531 5.8438,1.3281 1.707,0.88672 3.2578,2.2578 4.6562,4.1094 z m -6.7188,20.656 c 2.1875,0 3.8516,-0.79688 5,-2.3906 1.1445,-1.5938 1.7188,-3.9102 1.7188,-6.9531 0,-3.0391 -0.57422,-5.3594 -1.7188,-6.9531 -1.1484,-1.5938 -2.8125,-2.3906 -5,-2.3906 -2.168,0 -3.8242,0.79688 -4.9688,2.3906 -1.1484,1.5938 -1.7188,3.9141 -1.7188,6.9531 0,3.043 0.57031,5.3594 1.7188,6.9531 1.1445,1.5938 2.8008,2.3906 4.9688,2.3906 z"
         id="path930" />
    </symbol>
    <symbol
       id="c"
       overflow="visible">
      <path
         d="m 21.875,-6.5781 c 2.1758,0 3.8359,-0.79688 4.9844,-2.3906 1.1562,-1.5938 1.7344,-3.9102 1.7344,-6.9531 0,-3.0391 -0.57812,-5.3594 -1.7344,-6.9531 -1.1484,-1.5938 -2.8086,-2.3906 -4.9844,-2.3906 -2.1875,0 -3.8672,0.80469 -5.0312,2.4062 -1.168,1.6055 -1.75,3.918 -1.75,6.9375 0,3.0234 0.58203,5.3359 1.75,6.9375 1.1641,1.6055 2.8438,2.4062 5.0312,2.4062 z m -6.7812,-20.656 c 1.4062,-1.8516 2.9609,-3.2227 4.6719,-4.1094 1.707,-0.88281 3.6719,-1.3281 5.8906,-1.3281 3.9375,0 7.1641,1.5625 9.6875,4.6875 2.5195,3.125 3.7812,7.1484 3.7812,12.062 0,4.918 -1.2617,8.9375 -3.7812,12.062 -2.5234,3.125 -5.75,4.6875 -9.6875,4.6875 -2.2188,0 -4.1836,-0.44531 -5.8906,-1.3281 -1.7109,-0.88281 -3.2656,-2.2539 -4.6719,-4.1094 V -7e-4 H 4.9058 v -44.312 h 10.188 z"
         id="path933" />
    </symbol>
    <symbol
       id="b"
       overflow="visible">
      <path
         d="m 5.3594,-42.516 h 10.953 V 0 H 5.3594 Z"
         id="path936" />
    </symbol>
  </defs>
  <g
     id="layer1"
     transform="translate(73.605883,-60.374911)">
    <g
       id="g961"
       transform="matrix(0.35277778,0,0,0.35277778,-98.284629,60.391773)">
      <path
         d="M 571.67,140 H 210 c -6.4414,0 -11.668,5.2227 -11.668,11.668 0,6.4414 5.2266,11.664 11.668,11.664 h 361.67 c 9.2812,0 18.184,3.6875 24.746,10.254 6.5664,6.5625 10.254,15.465 10.254,24.746 v 23.336 c 0,6.4414 5.2227,11.664 11.664,11.664 6.4453,0 11.668,-5.2227 11.668,-11.664 V 198.332 C 629.9825,182.867 623.8301,168.043 612.897,157.105 601.959,146.171 587.135,140.019 571.67,140 Z"
         id="path941"
         style="fill:#ffffff" />
      <path
         d="m 618.33,385 c -6.4414,0 -11.664,5.2227 -11.664,11.668 v 105 c 0,9.2812 -3.6875,18.184 -10.254,24.746 -6.5625,6.5664 -15.465,10.254 -24.746,10.254 h -443.34 c -9.2812,0 -18.184,-3.6875 -24.746,-10.254 -6.5664,-6.5625 -10.254,-15.465 -10.254,-24.746 v -105 C 93.326,390.2227 88.1033,385 81.662,385 c -6.4453,0 -11.668,5.2227 -11.668,11.668 v 105 c 0.01953,15.465 6.1719,30.289 17.105,41.227 10.938,10.934 25.762,17.086 41.227,17.105 h 443.34 c 15.465,-0.0195 30.289,-6.1719 41.227,-17.105 10.934,-10.938 17.086,-25.762 17.105,-41.227 v -105 c 0,-3.0938 -1.2305,-6.0625 -3.418,-8.25 -2.1875,-2.1875 -5.1562,-3.418 -8.25,-3.418 z"
         id="path943"
         style="fill:#ffffff" />
      <path
         d="m 81.668,233.33 c 3.0938,0 6.0586,-1.2266 8.25,-3.4141 2.1875,-2.1914 3.4141,-5.1562 3.4141,-8.25 v -163.27 c -0.51562,-9.4375 3.0039,-18.648 9.6797,-25.34 6.6758,-6.692 15.883,-10.227 25.32,-9.7305 h 151.6 c 9.4375,-0.51562 18.652,3.0039 25.34,9.6797 6.6914,6.6758 10.227,15.883 9.7305,25.32 v 23.336 c 0,3.0938 1.2305,6.0586 3.418,8.25 2.1875,2.1875 5.1562,3.4141 8.25,3.4141 h 186.66 v 11.668 c 0,6.4414 5.2266,11.668 11.668,11.668 6.4414,0 11.668,-5.2266 11.668,-11.668 v -11.668 c 0.12891,-6.2266 -2.2852,-12.238 -6.6914,-16.645 -4.4023,-4.4023 -10.414,-6.8203 -16.645,-6.6875 h -175 v -11.668 c 0.59375,-15.645 -5.3633,-30.828 -16.434,-41.898 -11.07,-11.07 -26.254,-17.027 -41.898,-16.434 h -151.67 c -15.645,-0.59375 -30.828,5.3633 -41.898,16.434 -11.07,11.07 -17.027,26.254 -16.434,41.898 v 163.34 c 0,3.0938 1.2305,6.0586 3.418,8.25 2.1875,2.1875 5.1562,3.4141 8.25,3.4141 z"
         id="path945"
         style="fill:#ffffff" />
      <path
         d="m 606.67,256.67 h -46.668 c -6.1875,0 -12.125,2.457 -16.5,6.832 -4.375,4.375 -6.832,10.312 -6.832,16.5 v 11.668 h -140 v -11.668 c 0,-6.1875 -2.4609,-12.125 -6.8359,-16.5 -4.375,-4.375 -10.309,-6.832 -16.5,-6.832 h -46.664 c -6.1914,0 -12.125,2.457 -16.5,6.832 -4.375,4.375 -6.8359,10.312 -6.8359,16.5 v 11.668 h -140 v -11.668 c 0,-6.1875 -2.457,-12.125 -6.832,-16.5 -4.375,-4.375 -10.312,-6.832 -16.5,-6.832 h -46.668 c -6.1875,0 -12.121,2.457 -16.496,6.832 -4.3789,4.375 -6.8359,10.312 -6.8359,16.5 v 46.668 c 0,6.1875 2.457,12.121 6.8359,16.496 4.375,4.3789 10.309,6.8359 16.496,6.8359 h 46.668 c 6.1875,0 12.125,-2.457 16.5,-6.8359 4.375,-4.375 6.832,-10.309 6.832,-16.496 v -11.668 h 60.363 c -32.184,20.945 -53.328,55.176 -57.656,93.332 h -14.371 c -6.1914,0 -12.125,2.4609 -16.5,6.8359 -4.375,4.375 -6.8359,10.309 -6.8359,16.5 v 46.668 -0.004 c 0,6.1914 2.4609,12.125 6.8359,16.5 4.375,4.375 10.309,6.8359 16.5,6.8359 h 46.668 -0.004 c 6.1914,0 12.125,-2.4609 16.5,-6.8359 4.375,-4.375 6.8359,-10.309 6.8359,-16.5 v -46.664 c 0,-6.1914 -2.4609,-12.125 -6.8359,-16.5 -4.375,-4.375 -10.309,-6.8359 -16.5,-6.8359 h -8.5859 c 14.664,-78.273 79.238,-91.512 109.15,-93.332 h 4.4336 v 11.668 c 0,6.1875 2.4609,12.121 6.8359,16.496 4.375,4.3789 10.309,6.8359 16.5,6.8359 h 46.668 -0.004 c 6.1914,0 12.125,-2.457 16.5,-6.8359 4.375,-4.375 6.8359,-10.309 6.8359,-16.496 v -11.668 h 4.3281 c 29.867,1.7852 94.57,14.945 109.26,93.332 h -8.5859 c -6.1914,0 -12.125,2.4609 -16.5,6.8359 -4.375,4.375 -6.8359,10.309 -6.8359,16.5 v 46.668 -0.004 c 0,6.1914 2.4609,12.125 6.8359,16.5 4.375,4.375 10.309,6.8359 16.5,6.8359 h 46.668 -0.004 c 6.1914,0 12.125,-2.4609 16.5,-6.8359 4.375,-4.375 6.8359,-10.309 6.8359,-16.5 v -46.664 c 0,-6.1914 -2.4609,-12.125 -6.8359,-16.5 -4.375,-4.375 -10.309,-6.8359 -16.5,-6.8359 h -14.371 c -4.3242,-38.152 -25.461,-72.379 -57.633,-93.332 h 60.34 v 11.668 c 0,6.1875 2.457,12.121 6.832,16.496 4.375,4.3789 10.312,6.8359 16.5,6.8359 h 46.668 c 6.1875,0 12.121,-2.457 16.496,-6.8359 4.3789,-4.375 6.8359,-10.309 6.8359,-16.496 v -46.668 c 0,-6.1875 -2.457,-12.125 -6.8359,-16.5 -4.375,-4.375 -10.309,-6.832 -16.496,-6.832 z M 140,326.67 H 93.332 V 280.002 H 140 Z m 58.332,151.67 -46.664,-0.004 v -46.664 h 46.668 z m 350,0 h -46.668 l 0.004,-46.668 h 46.668 z m -175,-151.67 h -46.668 l 0.004,-46.668 h 46.668 z m 233.33,0 h -46.668 l 0.004,-46.668 h 46.668 z"
         id="path947"
         style="fill:#ffffff" />
    </g>
  </g>
</svg>
