<?xml version="1.0" encoding="UTF-8" standalone="no"?>
<!-- Generator: Adobe Illustrator 26.2.1, SVG Export Plug-In . SVG Version: 6.00 Build 0)  -->

<svg
        version="1.1"
        id="Ebene_1"
        x="0px"
        y="0px"
        viewBox="0 0 580 396"
        style="enable-background:new 0 0 580 396;"
        xml:space="preserve"
        sodipodi:docname="opentosca-logo-bg.svg"
        inkscape:version="1.1.2 (b8e25be8, 2022-02-05)"
        xmlns:inkscape="http://www.inkscape.org/namespaces/inkscape"
        xmlns:sodipodi="http://sodipodi.sourceforge.net/DTD/sodipodi-0.dtd"
        xmlns="http://www.w3.org/2000/svg"
><defs
   id="defs1172"><linearGradient
     id="linearGradient1743"
     inkscape:swatch="solid"><stop
       style="stop-color:#1e1e1e;stop-opacity:1;"
       offset="0"
       id="stop1741" /></linearGradient></defs><sodipodi:namedview
   id="namedview1170"
   pagecolor="#ffffff"
   bordercolor="#666666"
   borderopacity="1.0"
   inkscape:pageshadow="2"
   inkscape:pageopacity="0.0"
   inkscape:pagecheckerboard="0"
   showgrid="false"
   inkscape:zoom="2.0068966"
   inkscape:cx="194.82818"
   inkscape:cy="210.02577"
   inkscape:window-width="2276"
   inkscape:window-height="1081"
   inkscape:window-x="0"
   inkscape:window-y="25"
   inkscape:window-maximized="0"
   inkscape:current-layer="Ebene_1" />
<style
   type="text/css"
   id="style1139">
	.st0{fill:#F5F5F5;stroke:#1A1A1A;stroke-miterlimit:10;}
	.st1{fill:none;stroke:#212121;stroke-width:17;stroke-miterlimit:10;}
	.st2{fill:#212121;stroke:#212121;stroke-width:2;stroke-miterlimit:10;}
	.st3{fill:none;stroke:#212121;stroke-width:5;stroke-miterlimit:10;}
</style>
<path
   class="st0"
   d="M496.77,138.21C491.48,98.3,457.35,67.5,416,67.5c-12.59,0-24.51,2.86-35.16,7.96  C353.6,49.2,312.72,32.5,267,32.5c-70.68,0-129.81,39.9-144.82,93.34C64.17,130.34,18.5,178.84,18.5,238  c0,62.13,50.37,112.5,112.5,112.5c8.79,0,17.34-1.01,25.54-2.91c20.17,19.16,47.44,30.91,77.46,30.91  c30.12,0,57.47-11.84,77.66-31.11c8.45,2.03,17.27,3.11,26.34,3.11c19.54,0,37.91-4.98,53.93-13.75  c17.17,10.62,37.4,16.75,59.07,16.75c62.13,0,112.5-50.37,112.5-112.5C563.5,195.17,536.09,155.74,496.77,138.21z"
   id="path1141"
   style="stroke:#e3e3e3;stroke-opacity:1;fill:#fbfbfb;fill-opacity:1" />
<path
   class="st1"
   d="M 496.77,138.21 C 491.48,98.3 457.35,67.5 416,67.5 c -12.59,0 -24.51,2.86 -35.16,7.96 C 353.6,49.2 312.72,32.5 267,32.5 196.32,32.5 137.19,72.4 122.18,125.84 64.17,130.34 18.5,178.84 18.5,238 c 0,16.2295 3.436999,31.65655 9.622802,45.59297 C 45.617583,323.00814 85.099497,350.5 131,350.5 c 8.79,0 17.34,-1.01 25.54,-2.91 2.48704,2.3625 5.08203,4.61235 7.77681,6.74139 C 183.47681,369.469 207.68158,378.5 234,378.5 c 30.12,0 57.47,-11.84 77.66,-31.11 8.45,2.03 17.27,3.11 26.34,3.11 19.54,0 37.91,-4.98 53.93,-13.75 17.17,10.62 37.4,16.75 59.07,16.75 62.13,0 112.5,-50.37 112.5,-112.5 0,-45.83 -27.41,-85.26 -66.73,-102.79 z"
   id="path1143"
   sodipodi:nodetypes="cscscssscsscscssc"
   style="stroke:#e3e3e3;stroke-opacity:1" />
<path
   class="st2"
   d="M175.71,305h-30.42c-5.68,0-10.29-4.61-10.29-10.29v-30.42c0-5.68,4.61-10.29,10.29-10.29h30.42  c5.68,0,10.29,4.61,10.29,10.29v30.42C186,300.39,181.39,305,175.71,305z"
   id="path1145"
   style="stroke:#e3e3e3;stroke-opacity:1;fill:#e3e3e3;fill-opacity:1" />
<path
   class="st2"
   d="M175.71,219h-30.42c-5.68,0-10.29-4.61-10.29-10.29v-30.42c0-5.68,4.61-10.29,10.29-10.29h30.42  c5.68,0,10.29,4.61,10.29,10.29v30.42C186,214.39,181.39,219,175.71,219z"
   id="path1147"
   style="stroke:#e3e3e3;stroke-opacity:1;fill:#e3e3e3;fill-opacity:1" />
<path
   class="st2"
   d="M233.71,134h-30.42c-5.68,0-10.29-4.61-10.29-10.29V93.29c0-5.68,4.61-10.29,10.29-10.29h30.42  c5.68,0,10.29,4.61,10.29,10.29v30.42C244,129.39,239.39,134,233.71,134z"
   id="path1149"
   style="stroke:#e3e3e3;stroke-opacity:1;fill:#e3e3e3;fill-opacity:1" />
<path
   class="st2"
   d="M292.71,219h-30.42c-5.68,0-10.29-4.61-10.29-10.29v-30.42c0-5.68,4.61-10.29,10.29-10.29h30.42  c5.68,0,10.29,4.61,10.29,10.29v30.42C303,214.39,298.39,219,292.71,219z"
   id="path1151"
   style="stroke:#e3e3e3;stroke-opacity:1;fill:#e3e3e3;fill-opacity:1" />
<circle
   class="st2"
   cx="346.5"
   cy="244.5"
   r="21.5"
   id="circle1153"
   style="fill:#e3e3e3;fill-opacity:1;stroke:#e3e3e3;stroke-opacity:1" />
<circle
   class="st2"
   cx="420.5"
   cy="279.5"
   r="21.5"
   id="circle1155"
   style="stroke:#e3e3e3;stroke-opacity:1;fill:#e3e3e3;fill-opacity:1" />
<circle
   class="st2"
   cx="495.5"
   cy="244.5"
   r="21.5"
   id="circle1157"
   style="stroke:#e3e3e3;stroke-opacity:1;fill:#e3e3e3;fill-opacity:1" />
<circle
   class="st2"
   cx="420.5"
   cy="201.5"
   r="21.5"
   id="circle1159"
   style="stroke:#e3e3e3;stroke-opacity:1;fill:#e3e3e3;fill-opacity:1" />
<polyline
   class="st3"
   points="218.27,108.77 277.5,168 277.5,193.5 "
   id="polyline1161"
   style="stroke:#e3e3e3;stroke-opacity:1" />
<polyline
   class="st3"
   points="277.5,191.33 346.5,244.5 420.5,201.5 "
   id="polyline1163"
   style="stroke:#e3e3e3;stroke-opacity:1;fill:none" />
<polygon
   class="st3"
   points="218.5,108.5 160.5,168 160.5,193.5 160.5,279.5 420.5,279.5 495.5,244.5 420.5,201.5 244,108.77 "
   id="polygon1165"
   style="stroke:#e3e3e3;stroke-opacity:1;fill:none" />
<line
   class="st3"
   x1="420.5"
   y1="279.5"
   x2="346.5"
   y2="244.5"
   id="line1167"
   style="stroke:#e3e3e3;stroke-opacity:1" />
</svg>
